<svg width="183" height="183" xmlns="http://www.w3.org/2000/svg" xmlns:xlink="http://www.w3.org/1999/xlink" overflow="hidden"><defs><clipPath id="clip0"><rect x="165" y="165" width="183" height="183"/></clipPath></defs><g clip-path="url(#clip0)" transform="translate(-165 -165)"><path d="M301.949 242.258C300.831 240.459 298.466 239.907 296.667 241.025 296.166 241.336 295.744 241.758 295.433 242.258L282.909 262.486 285.145 266.121 298.67 244.285C298.676 244.276 298.687 244.273 298.696 244.279 298.699 244.28 298.701 244.282 298.702 244.285L338.522 307.969 343.019 307.969Z"/><path d="M237.453 203.125C236.167 203.128 234.958 203.741 234.197 204.778L170.648 307.969 175.126 307.969 203.952 261.159 225.569 246.671 237.455 257.537 249.359 246.683 271.35 261.552 300.067 307.969 304.551 307.969 240.714 204.778C239.954 203.737 238.742 203.123 237.453 203.125ZM249.008 241.833 237.458 252.367 225.931 241.837 208.775 253.341 237.319 206.979 237.319 206.979C237.358 206.951 237.405 206.936 237.453 206.938 237.506 206.937 237.558 206.954 237.6 206.987L266.454 253.641Z"/></g></svg>