<svg width="539" height="539" xmlns="http://www.w3.org/2000/svg" xmlns:xlink="http://www.w3.org/1999/xlink" xml:space="preserve" overflow="hidden"><defs><clipPath id="clip0"><rect x="454" y="968" width="539" height="539"/></clipPath><clipPath id="clip1"><rect x="558" y="1072" width="331" height="331"/></clipPath><clipPath id="clip2"><rect x="558" y="1072" width="331" height="331"/></clipPath><clipPath id="clip3"><rect x="558" y="1072" width="331" height="331"/></clipPath></defs><g clip-path="url(#clip0)" transform="translate(-454 -968)"><rect x="454" y="968" width="539" height="539" fill="#FFFFFF"/><g clip-path="url(#clip1)"><g clip-path="url(#clip2)"><g clip-path="url(#clip3)"><path d="M686.194 1158.94 779.007 1158.94 779.007 1172.69 686.194 1172.69Z"/><path d="M686.194 1210.5 744.632 1210.5 744.632 1224.25 686.194 1224.25Z"/><path d="M761.819 1210.5 779.007 1210.5 779.007 1224.25 761.819 1224.25Z"/><path d="M686.194 1244.87 744.632 1244.87 744.632 1258.62 686.194 1258.62Z"/><path d="M761.819 1244.87 779.007 1244.87 779.007 1258.62 761.819 1258.62Z"/><path d="M686.194 1279.25 744.632 1279.25 744.632 1293 686.194 1293Z"/><path d="M761.819 1279.25 779.007 1279.25 779.007 1293 761.819 1293Z"/><path d="M823.687 1323.94 823.687 1141.75C823.663 1120.88 806.748 1103.96 785.875 1103.94L624.312 1103.94C603.439 1103.96 586.525 1120.88 586.5 1141.75L586.5 1200.19 641.5 1200.19 641.5 1323.94 607.125 1323.94 607.125 1372.06 858.062 1372.06 858.062 1323.94ZM785.875 1124.56C795.363 1124.57 803.051 1132.26 803.062 1141.75L803.062 1341.12 662.125 1341.12 662.125 1141.75C662.134 1135.77 660.72 1129.88 658 1124.56ZM607.125 1179.56 607.125 1141.75C607.125 1132.26 614.82 1124.56 624.312 1124.56 633.805 1124.56 641.5 1132.26 641.5 1141.75L641.5 1179.56Z"/></g></g></g></g></svg>